<svg width="64" height="64" viewBox="0 0 64 64" fill="none" xmlns="http://www.w3.org/2000/svg">
  <circle cx="32" cy="32" r="22" stroke="#132127" stroke-width="3"/>
  <path d="M10 32H54" stroke="#132127" stroke-width="3" stroke-linecap="round"/>
  <path d="M32 10C38 16 41 23 41 32C41 41 38 48 32 54" stroke="#132127" stroke-width="3" stroke-linecap="round"/>
  <path d="M32 10C26 16 23 23 23 32C23 41 26 48 32 54" stroke="#132127" stroke-width="3" stroke-linecap="round"/>
  <path d="M15 22C20 25 26 26 32 26C38 26 44 25 49 22" stroke="#132127" stroke-width="3" stroke-linecap="round"/>
  <path d="M15 42C20 39 26 38 32 38C38 38 44 39 49 42" stroke="#132127" stroke-width="3" stroke-linecap="round"/>
</svg>
